HIERARCHY
ROOT hip
{
  OFFSET 0 0 0
  CHANNELS 6 Xposition Yposition Zposition Zrotation Yrotation Xrotation
  JOINT abdomen
  {
    OFFSET 0 20.6881 -0.73152
    CHANNELS 3 Zrotation Xrotation Yrotation
    JOINT chest
    {
      OFFSET 0 11.7043 -0.48768
      CHANNELS 3 Zrotation Xrotation Yrotation
      JOINT neck
      {
        OFFSET 0 22.1894 -2.19456
        CHANNELS 3 Zrotation Xrotation Yrotation
        JOINT head
        {
          OFFSET -0.24384 7.07133 1.2192
          CHANNELS 3 Zrotation Xrotation Yrotation
          JOINT leftEye
          {
            OFFSET 4.14528 8.04674 8.04672
            CHANNELS 3 Zrotation Xrotation Yrotation
            End Site
            {
              OFFSET 1 0 0
            }
          }
          JOINT rightEye
          {
            OFFSET -3.6576 8.04674 8.04672
            CHANNELS 3 Zrotation Xrotation Yrotation
            End Site
            {
              OFFSET 1 0 0
            }
          }
        }
      }
      JOINT rCollar
      {
        OFFSET -2.68224 19.2634 -4.8768
        CHANNELS 3 Zrotation Xrotation Yrotation
        JOINT rShldr
        {
          OFFSET -8.77824 -1.95073 1.46304
          CHANNELS 3 Zrotation Xrotation Yrotation
          JOINT rForeArm
          {
            OFFSET -28.1742 -1.7115 0.48768
            CHANNELS 3 Zrotation Xrotation Yrotation
            JOINT rHand
            {
              OFFSET -22.5879 0.773209 7.07136
              CHANNELS 3 Zrotation Xrotation Yrotation
              JOINT rThumb1
              {
                OFFSET -1.2192 -0.487915 3.41376
                CHANNELS 3 Zrotation Xrotation Yrotation
                JOINT rThumb2
                {
                  OFFSET -3.37035 -0.52449 3.41376
                  CHANNELS 3 Zrotation Xrotation Yrotation
                  End Site
                  {
                    OFFSET -1.78271 -1.18214 1.43049
                  }
                }
              }
              JOINT rIndex1
              {
                OFFSET -7.75947 0.938293 5.60832
                CHANNELS 3 Zrotation Xrotation Yrotation
                JOINT rIndex2
                {
                  OFFSET -2.54057 -0.884171 1.56538
                  CHANNELS 3 Zrotation Xrotation Yrotation
                  End Site
                  {
                    OFFSET -1.62519 -0.234802 1.16502
                  }
                }
              }
              JOINT rMid1
              {
                OFFSET -8.24714 1.18213 3.41376
                CHANNELS 3 Zrotation Xrotation Yrotation
                JOINT rMid2
                {
                  OFFSET -3.10165 -0.590103 1.0647
                  CHANNELS 3 Zrotation Xrotation Yrotation
                  End Site
                  {
                    OFFSET -2.48547 -0.328903 0.83742
                  }
                }
              }
              JOINT rRing1
              {
                OFFSET -8.82822 0.546677 1.51678
                CHANNELS 3 Zrotation Xrotation Yrotation
                JOINT rRing2
                {
                  OFFSET -2.60934 -0.819778 -0.0198488
                  CHANNELS 3 Zrotation Xrotation Yrotation
                  End Site
                  {
                    OFFSET -2.33842 -0.294052 0.168128
                  }
                }
              }
              JOINT rPinky1
              {
                OFFSET -8.27202 -0.0477905 -0.4584
                CHANNELS 3 Zrotation Xrotation Yrotation
                JOINT rPinky2
                {
                  OFFSET -1.82734 -0.647385 -0.700984
                  CHANNELS 3 Zrotation Xrotation Yrotation
                  End Site
                  {
                    OFFSET -1.69225 -0.51767 -0.607171
                  }
                }
              }
            }
          }
        }
      }
      JOINT lCollar
      {
        OFFSET 2.68224 19.2634 -4.8768
        CHANNELS 3 Zrotation Xrotation Yrotation
        JOINT lShldr
        {
          OFFSET 8.77824 -1.95073 1.46304
          CHANNELS 3 Zrotation Xrotation Yrotation
          JOINT lForeArm
          {
            OFFSET 28.1742 -1.7115 0.48768
            CHANNELS 3 Zrotation Xrotation Yrotation
            JOINT lHand
            {
              OFFSET 22.5879 0.773209 7.07136
              CHANNELS 3 Zrotation Xrotation Yrotation
              JOINT lThumb1
              {
                OFFSET 1.2192 -0.487915 3.41376
                CHANNELS 3 Zrotation Xrotation Yrotation
                JOINT lThumb2
                {
                  OFFSET 3.37035 -0.52449 3.41376
                  CHANNELS 3 Zrotation Xrotation Yrotation
                  End Site
                  {
                    OFFSET 1.78271 -1.18214 1.43049
                  }
                }
              }
              JOINT lIndex1
              {
                OFFSET 7.75947 0.938293 5.60832
                CHANNELS 3 Zrotation Xrotation Yrotation
                JOINT lIndex2
                {
                  OFFSET 2.54057 -0.884171 1.56538
                  CHANNELS 3 Zrotation Xrotation Yrotation
                  End Site
                  {
                    OFFSET 1.62519 -0.234802 1.16502
                  }
                }
              }
              JOINT lMid1
              {
                OFFSET 8.24714 1.18213 3.41376
                CHANNELS 3 Zrotation Xrotation Yrotation
                JOINT lMid2
                {
                  OFFSET 3.10165 -0.590103 1.0647
                  CHANNELS 3 Zrotation Xrotation Yrotation
                  End Site
                  {
                    OFFSET 2.48547 -0.328903 0.83742
                  }
                }
              }
              JOINT lRing1
              {
                OFFSET 8.82822 0.546677 1.51678
                CHANNELS 3 Zrotation Xrotation Yrotation
                JOINT lRing2
                {
                  OFFSET 2.60934 -0.819778 -0.0198488
                  CHANNELS 3 Zrotation Xrotation Yrotation
                  End Site
                  {
                    OFFSET 2.33842 -0.294052 0.168128
                  }
                }
              }
              JOINT lPinky1
              {
                OFFSET 8.27202 -0.0477905 -0.4584
                CHANNELS 3 Zrotation Xrotation Yrotation
                JOINT lPinky2
                {
                  OFFSET 1.82734 -0.647385 -0.700984
                  CHANNELS 3 Zrotation Xrotation Yrotation
                  End Site
                  {
                    OFFSET 1.69225 -0.51767 -0.607171
                  }
                }
              }
            }
          }
        }
      }
    }
  }
  JOINT rButtock
  {
    OFFSET -8.77824 4.35084 1.2192
    CHANNELS 3 Zrotation Xrotation Yrotation
    JOINT rThigh
    {
      OFFSET 0 -1.70687 -2.19456
      CHANNELS 3 Zrotation Xrotation Yrotation
      JOINT rShin
      {
        OFFSET 0 -36.8199 0.73152
        CHANNELS 3 Zrotation Xrotation Yrotation
        JOINT rFoot
        {
          OFFSET 0.73152 -45.1104 -5.12064
          CHANNELS 3 Zrotation Xrotation Yrotation
          End Site
          {
            OFFSET -1.1221 -3.69964 12.103
          }
        }
      }
    }
  }
  JOINT lButtock
  {
    OFFSET 8.77824 4.35084 1.2192
    CHANNELS 3 Zrotation Xrotation Yrotation
    JOINT lThigh
    {
      OFFSET 0 -1.70687 -2.19456
      CHANNELS 3 Zrotation Xrotation Yrotation
      JOINT lShin
      {
        OFFSET 0 -36.8199 0.73152
        CHANNELS 3 Zrotation Xrotation Yrotation
        JOINT lFoot
        {
          OFFSET -0.73152 -45.1104 -5.12064
          CHANNELS 3 Zrotation Xrotation Yrotation
          End Site
          {
            OFFSET 1.1221 -3.69964 12.103
          }
        }
      }
    }
  }
}
MOTION
Frames:	4
Frame Time:	0.03333
-0.00681819756897055 23.044592099212167 0.0068754933678803025 -153.6230010986328 82.71300506591797 -147.96499633789062 -0.6751826405525208 18.3677978515625 18.162397384643555 -5.217550277709961 -14.146598815917969 4.363609790802002 0.5016469359397888 14.194900512695312 13.276199340820312 -1.1225504875183105 -20.7333984375 25.976499557495117 -0.0 0.0 -0.0 -0.0 0.0 -0.0 1.1449996224592585e-13 1.7811105238255132e-13 6.361109013662547e-14 -12.288297653198242 49.21229934692383 76.50979614257812 -27.363393783569336 -42.957401275634766 89.40629577636719 -0.08324781060218811 8.201469421386719 1.160659909248352 -5.263563473967281e-10 -1.0791099569473772e-08 -1.301730945257873e-09 -9.122593791488498e-10 -1.8646700183921894e-08 -2.2466482008098865e-09 -5.263563473967281e-10 -1.0790998317133926e-08 -1.3017404931758847e-09 7.7309088706970215 5.474880218505859 0.41731396317481995 -5.263563473967281e-10 -1.0790998317133926e-08 -1.301730945257873e-09 2.9055399894714355 0.9651829600334167 0.10290198773145676 -5.263563473967281e-10 -1.0791099569473772e-08 -1.3017404931758847e-09 10.27859878540039 0.73180091381073 0.025912299752235413 -5.263690594503601e-10 -1.0790998317133926e-08 -1.301730945257873e-09 2.2216696739196777 -0.7334870100021362 -0.2089199721813202 1.1449996224592585e-13 1.7811105238255132e-13 6.361109013662547e-14 -56.276798248291016 6.70080041885376 -19.27800178527832 26.69899559020996 -44.77590560913086 -93.00299072265625 2.2995095252990723 -38.885799407958984 6.508139610290527 1.6585192108564684e-09 -1.0796710192551018e-09 3.1237498698821753e-10 2.8640383398226277e-09 -1.8236154808448646e-09 5.767490374175566e-10 1.6585065543139876e-09 -1.079658362712621e-09 3.1239724695986126e-10 -7.7309088706970215 5.474880218505859 -0.41731396317481995 1.6585192108564684e-09 -1.0796710192551018e-09 3.123781511238377e-10 -2.9055399894714355 0.9651829600334167 -0.10290198773145676 1.6585192108564684e-09 -1.079658362712621e-09 3.1237498698821753e-10 -10.27859878540039 0.73180091381073 -0.025912299752235413 1.6585319784212516e-09 -1.079658362712621e-09 3.1237179509702173e-10 -2.2216696739196777 -0.7334870100021362 0.2089199721813202 -0.0 0.0 -0.0 -73.58199310302734 -46.56039810180664 -58.686988830566406 -175.75698852539062 74.82559967041016 178.22999572753906 -4.498190402984619 -26.765098571777344 -9.30752944946289 -0.0 0.0 -0.0 95.9992904663086 -54.753395080566406 73.92599487304688 174.6649932861328 76.73179626464844 -175.84898376464844 -3.728419542312622 -25.69029998779297 -3.631570339202881
-0.015870930461658116 23.061780270258506 0.014896902713955652 -152.9139862060547 82.62779998779297 -147.24899291992188 -0.48891985416412354 18.46769905090332 18.19809913635254 -5.252019882202148 -14.193299293518066 4.3750901222229 0.5400426387786865 14.083898544311523 13.23439884185791 -1.1518309116363525 -20.580299377441406 25.89009666442871 -0.0 0.0 -0.0 -0.0 0.0 -0.0 1.1449996224592585e-13 4.325554129290532e-13 3.1805545068312735e-14 -12.267199516296387 49.207000732421875 76.36979675292969 -27.36849594116211 -42.94139862060547 89.37549591064453 -0.08454911410808563 8.266380310058594 1.1699700355529785 -7.967416171261732e-10 -1.0974796182949831e-08 -1.1677692146605523e-09 -1.3791138231411537e-09 -1.8971396897882187e-08 -2.0166592840098474e-09 -7.967416171261732e-10 -1.0974796182949831e-08 -1.1677692146605523e-09 7.7309088706970215 5.474880218505859 0.41731396317481995 -7.967416171261732e-10 -1.0974796182949831e-08 -1.1677596667425405e-09 2.9055399894714355 0.9651829600334167 0.10290198773145676 -7.967416171261732e-10 -1.0974796182949831e-08 -1.1677692146605523e-09 10.27859878540039 0.73180091381073 0.025912299752235413 -7.967416171261732e-10 -1.0974796182949831e-08 -1.1677596667425405e-09 2.2216696739196777 -0.7334870100021362 -0.2089199721813202 1.1449996224592585e-13 4.325554129290532e-13 3.1805545068312735e-14 -56.226993560791016 6.853010654449463 -19.352298736572266 26.722299575805664 -44.71979522705078 -92.88919830322266 2.2885499000549316 -38.81069564819336 6.490649223327637 1.8231829379544706e-09 -9.165340153494128e-10 5.480508824540209e-10 3.135708581680774e-09 -1.5138293951721948e-09 9.999886474432174e-10 1.8231829379544706e-09 -9.165340153494128e-10 5.480699782900444e-10 -7.7309088706970215 5.474880218505859 -0.41731396317481995 1.8231955944969513e-09 -9.165340153494128e-10 5.480508824540209e-10 -2.9055399894714355 0.9651829600334167 -0.10290198773145676 1.8231829379544706e-09 -9.165340153494128e-10 5.480508824540209e-10 -10.27859878540039 0.73180091381073 -0.025912299752235413 1.8231955944969513e-09 -9.165340153494128e-10 5.480445541827805e-10 -2.2216696739196777 -0.7334870100021362 0.2089199721813202 -0.0 0.0 -0.0 -73.37549591064453 -46.574195861816406 -58.619998931884766 -175.73899841308594 74.89649963378906 178.21499633789062 -4.542089939117432 -26.733400344848633 -9.385420799255371 -0.0 0.0 -0.0 96.05469512939453 -54.814697265625 73.8803939819336 174.6529998779297 76.77009582519531 -175.8369903564453 -3.717409610748291 -25.660600662231445 -3.619199752807617
-0.030595946195766173 23.09100152707511 0.010886198040917977 -151.8560028076172 82.53131103515625 -146.14999389648438 -0.1446654051542282 18.5531005859375 18.098098754882812 -5.3634796142578125 -14.233500480651855 4.346610069274902 0.5203301906585693 14.060500144958496 13.244098663330078 -1.1378600597381592 -20.739999771118164 25.91080093383789 -0.0 0.0 -0.0 -0.0 0.0 -0.0 8.905552619127566e-14 4.452776309563783e-13 -5.0888872109300376e-14 -12.356698989868164 49.17259979248047 76.42549896240234 -27.367401123046875 -42.944793701171875 89.38219451904297 -0.0908127874135971 8.56946086883545 1.2134901285171509 -3.200782972001548e-10 2.2280293165977128e-09 5.474815600869931e-10 -5.483403175965407e-10 3.8681648995009255e-09 9.456901928217576e-10 -3.200782972001548e-10 2.228016660055232e-09 5.474752318157527e-10 7.7309088706970215 5.474880218505859 0.41731396317481995 -3.200782972001548e-10 2.2280293165977128e-09 5.474879438693847e-10 2.9055399894714355 0.9651829600334167 0.10290198773145676 -3.200655573909472e-10 2.2280293165977128e-09 5.474847242226133e-10 10.27859878540039 0.73180091381073 0.025912299752235413 -3.200782972001548e-10 2.2280419731401935e-09 5.474942721406251e-10 2.2216696739196777 -0.7334870100021362 -0.2089199721813202 8.905552619127566e-14 4.452776309563783e-13 -5.0888872109300376e-14 -56.17519760131836 6.933919906616211 -19.274499893188477 26.72209358215332 -44.720401763916016 -92.89039611816406 2.299030065536499 -38.88249969482422 6.50738000869751 1.4954967819669207e-10 -3.0327224065374025e-10 -1.6873159813801664e-10 2.635789086991025e-10 -5.201860608927689e-10 -2.8403943086452443e-10 1.495369522652723e-10 -3.0327224065374025e-10 -1.6872205022000486e-10 -7.7309088706970215 5.474880218505859 -0.41731396317481995 1.4954967819669207e-10 -3.0327224065374025e-10 -1.6872842012460865e-10 -2.9055399894714355 0.9651829600334167 -0.10290198773145676 1.495369522652723e-10 -3.0327224065374025e-10 -1.6873159813801664e-10 -10.27859878540039 0.73180091381073 -0.025912299752235413 1.4954967819669207e-10 -3.0327224065374025e-10 -1.6873795416483262e-10 -2.2216696739196777 -0.7334870100021362 0.2089199721813202 -0.0 0.0 -0.0 -73.12670135498047 -46.59029769897461 -58.61099624633789 -175.7119903564453 75.02050018310547 178.18699645996094 -4.538329601287842 -26.695798873901367 -9.38909912109375 -0.0 0.0 -0.0 96.24449920654297 -54.90039825439453 73.91839599609375 174.64698791503906 76.80299377441406 -175.8389892578125 -3.6235599517822266 -25.64139747619629 -3.4609296321868896
-0.04457611612716579 23.122054982136575 -0.009167324073625407 -150.86599731445312 82.42530822753906 -145.05299377441406 0.20433877408504486 18.614299774169922 17.958499908447266 -5.468249797821045 -14.262100219726562 4.308750152587891 0.46827587485313416 14.056299209594727 13.269399642944336 -1.0926191806793213 -20.986900329589844 25.968599319458008 -0.0 0.0 -0.0 -0.0 0.0 -0.0 5.0888872109300376e-14 2.9261101462847716e-13 -7.315275365711929e-14 -12.485000610351562 49.12379837036133 76.55229949951172 -27.362396240234375 -42.96089553833008 89.41319274902344 -0.09714678674936295 8.855070114135742 1.2546000480651855 2.1674842476393508e-10 1.4097502720744615e-08 2.033350821051272e-09 3.851269858579087e-10 2.440430613148692e-08 3.5128016051544364e-09 2.1674842476393508e-10 1.4097400580226349e-08 2.03334127313326e-09 7.7309088706970215 5.474880218505859 0.41731396317481995 2.1674842476393508e-10 1.4097502720744615e-08 2.033350821051272e-09 2.9055399894714355 0.9651829600334167 0.10290198773145676 2.1676115069535484e-10 1.4097502720744615e-08 2.033350821051272e-09 10.27859878540039 0.73180091381073 0.025912299752235413 2.1674842476393508e-10 1.4097502720744615e-08 2.0333603689692836e-09 2.2216696739196777 -0.7334870100021362 -0.2089199721813202 5.0888872109300376e-14 2.9261101462847716e-13 -7.315275365711929e-14 -56.13839340209961 6.988580226898193 -19.15049934387207 26.716297149658203 -44.73460006713867 -92.919189453125 2.3120694160461426 -38.9712028503418 6.528120517730713 -1.474454225380839e-09 2.1141781381128766e-10 -9.128763855947852e-10 -2.518477648649764e-09 2.9455751726636947e-10 -1.6199995789278887e-09 -1.4744668819233198e-09 2.1141781381128766e-10 -9.128732214591651e-10 -7.7309088706970215 5.474880218505859 -0.41731396317481995 -1.474454225380839e-09 2.1141781381128766e-10 -9.128732214591651e-10 -2.9055399894714355 0.9651829600334167 -0.10290198773145676 -1.4744668819233198e-09 2.1141781381128766e-10 -9.128763855947852e-10 -10.27859878540039 0.73180091381073 -0.025912299752235413 -1.474454225380839e-09 2.1141781381128766e-10 -9.128827693771768e-10 -2.2216696739196777 -0.7334870100021362 0.2089199721813202 -0.0 0.0 -0.0 -72.906494140625 -46.609500885009766 -58.63560104370117 -175.67799377441406 75.17510223388672 178.14898681640625 -4.521029472351074 -26.654499053955078 -9.371779441833496 -0.0 0.0 -0.0 96.45140075683594 -54.9818000793457 73.99819946289062 174.6409912109375 76.83660125732422 -175.84298706054688 -3.5277795791625977 -25.627399444580078 -3.3007895946502686
